WWE Friday Night Smackdown HDTV 8th July 2011 in 7 parts in flv format. plz seed and fell free to comment!! it is complete show of 1 hr 35 minutes.

details of 1 part are:-


Video
Format                           : AVC
Format/Info                      : Advanced Video Codec
Format profile                   : Main@L3.0
Format settings, CABAC           : Yes
Format settings, ReFrames        : 3 frames
Format settings, GOP             : M=1, N=45
Codec ID                         : 7
Duration                         : 13mn 36s
Bit rate                         : 743 Kbps
Width                            : 624 pixels
Height                           : 320 pixels
Display aspect ratio             : 1.950
Frame rate mode                  : Constant
Frame rate                       : 29.970 fps
Color space                      : YUV
Chroma subsampling               : 4:2:0
Bit depth                        : 8 bits
Scan type                        : Progressive
Bits/(Pixel*Frame)               : 0.124
Stream size                      : 72.3 MiB (84%)

Audio
Format                           : AAC
Format/Info                      : Advanced Audio Codec
Format profile                   : LC
Codec ID                         : 10
Duration                         : 13mn 35s
Bit rate                         : 129 Kbps
Channel(s)                       : 2 channels
Channel positions                : Front: L R
Sampling rate                    : 44.1 KHz
Compression mode                 : Lossy
Stream size                      : 12.5 MiB (15%)
